<svg width="13" height="12" viewBox="0 0 13 12" fill="none" xmlns="http://www.w3.org/2000/svg">
<path d="M12.5521 4.14428L8.94192 3.626L7.32809 0.394177C7.28402 0.305691 7.2115 0.23406 7.12192 0.19052C6.89727 0.0809663 6.62427 0.172261 6.51194 0.394177L4.89811 3.626L1.28797 4.14428C1.18844 4.15832 1.09744 4.20467 1.02777 4.2749C0.943536 4.36041 0.897122 4.47547 0.898722 4.59477C0.900321 4.71407 0.949804 4.82787 1.0363 4.91115L3.64828 7.42667L3.03119 10.9787C3.01672 11.0614 3.02597 11.1463 3.05791 11.224C3.08984 11.3017 3.14318 11.369 3.21186 11.4183C3.28055 11.4676 3.36184 11.4969 3.44652 11.5028C3.53119 11.5088 3.61587 11.4912 3.69094 11.4521L6.92002 9.77504L10.1491 11.4521C10.2372 11.4984 10.3396 11.5139 10.4377 11.497C10.6851 11.4549 10.8515 11.2231 10.8088 10.9787L10.1917 7.42667L12.8037 4.91115C12.8748 4.84233 12.9217 4.75244 12.936 4.65412C12.9744 4.40833 12.8009 4.18079 12.5521 4.14428Z" fill="#FEA250"/>
</svg>
